<mxfile host="app.diagrams.net" modified="2021-10-18T17:21:50.381Z" agent="5.0 (Windows NT 10.0; WOW64) AppleWebKit/537.36 (KHTML, like Gecko) Chrome/94.0.4606.81 Safari/537.36" etag="Q7kb7MTNfsrWzty9MJBK" version="15.5.5" type="github">
  <diagram name="Page-1" id="13e1069c-82ec-6db2-03f1-153e76fe0fe0">
    <mxGraphModel dx="677" dy="1228" grid="1" gridSize="10" guides="1" tooltips="1" connect="1" arrows="1" fold="1" page="1" pageScale="1" pageWidth="1100" pageHeight="850" background="none" math="0" shadow="0">
      <root>
        <mxCell id="0" />
        <mxCell id="1" parent="0" />
        <mxCell id="wc8MHf9N2YYuKddE2Fxc-1" value="&lt;u&gt;f: Felhasználói adatkezelő&lt;/u&gt;" style="shape=umlLifeline;perimeter=lifelinePerimeter;whiteSpace=wrap;html=1;container=1;collapsible=0;recursiveResize=0;outlineConnect=0;" parent="1" vertex="1">
          <mxGeometry x="200" y="-797" width="241" height="287" as="geometry" />
        </mxCell>
        <mxCell id="wc8MHf9N2YYuKddE2Fxc-17" value="alt" style="shape=umlFrame;whiteSpace=wrap;html=1;" parent="wc8MHf9N2YYuKddE2Fxc-1" vertex="1">
          <mxGeometry x="-89" y="147" width="330" height="113" as="geometry" />
        </mxCell>
        <mxCell id="wc8MHf9N2YYuKddE2Fxc-4" value="" style="html=1;points=[];perimeter=orthogonalPerimeter;" parent="wc8MHf9N2YYuKddE2Fxc-1" vertex="1">
          <mxGeometry x="116" y="60" width="10" height="210" as="geometry" />
        </mxCell>
        <mxCell id="wc8MHf9N2YYuKddE2Fxc-5" value="bejelentkezés(felhasználónév, jelszó)" style="html=1;verticalAlign=bottom;endArrow=block;entryX=0;entryY=0;rounded=0;" parent="wc8MHf9N2YYuKddE2Fxc-1" target="wc8MHf9N2YYuKddE2Fxc-4" edge="1">
          <mxGeometry x="-0.0678" relative="1" as="geometry">
            <mxPoint x="-120" y="60" as="sourcePoint" />
            <mxPoint as="offset" />
          </mxGeometry>
        </mxCell>
        <mxCell id="wc8MHf9N2YYuKddE2Fxc-11" value="" style="html=1;points=[];perimeter=orthogonalPerimeter;" parent="wc8MHf9N2YYuKddE2Fxc-1" vertex="1">
          <mxGeometry x="121" y="93" width="10" height="20" as="geometry" />
        </mxCell>
        <mxCell id="wc8MHf9N2YYuKddE2Fxc-12" value="Authentikáció(felhasználónév, jelszó)" style="edgeStyle=orthogonalEdgeStyle;html=1;align=left;spacingLeft=2;endArrow=block;rounded=0;entryX=0.992;entryY=0.184;entryDx=0;entryDy=0;entryPerimeter=0;" parent="wc8MHf9N2YYuKddE2Fxc-1" edge="1">
          <mxGeometry x="0.1133" relative="1" as="geometry">
            <mxPoint x="126" y="61" as="sourcePoint" />
            <Array as="points">
              <mxPoint x="126" y="74" />
              <mxPoint x="157" y="74" />
              <mxPoint x="157" y="94" />
            </Array>
            <mxPoint as="offset" />
            <mxPoint x="131.91999999999996" y="93.68000000000006" as="targetPoint" />
          </mxGeometry>
        </mxCell>
        <mxCell id="wc8MHf9N2YYuKddE2Fxc-16" value="Eredmény" style="edgeStyle=orthogonalEdgeStyle;html=1;align=left;spacingLeft=2;endArrow=open;rounded=0;entryX=1;entryY=0.192;entryDx=0;entryDy=0;entryPerimeter=0;dashed=1;endFill=0;" parent="wc8MHf9N2YYuKddE2Fxc-1" edge="1">
          <mxGeometry x="0.1" relative="1" as="geometry">
            <mxPoint x="125" y="113" as="sourcePoint" />
            <Array as="points">
              <mxPoint x="155" y="113" />
              <mxPoint x="155" y="133" />
            </Array>
            <mxPoint x="125" y="133.0400000000002" as="targetPoint" />
            <mxPoint as="offset" />
          </mxGeometry>
        </mxCell>
        <mxCell id="wc8MHf9N2YYuKddE2Fxc-32" value="Bejelentkezés megtagadva" style="html=1;verticalAlign=bottom;endArrow=open;dashed=1;endSize=8;rounded=0;" parent="wc8MHf9N2YYuKddE2Fxc-1" edge="1">
          <mxGeometry x="-0.048" y="6" relative="1" as="geometry">
            <mxPoint x="-113" y="201" as="targetPoint" />
            <mxPoint x="116" y="201" as="sourcePoint" />
            <Array as="points">
              <mxPoint x="-34" y="201" />
            </Array>
            <mxPoint as="offset" />
          </mxGeometry>
        </mxCell>
        <mxCell id="wc8MHf9N2YYuKddE2Fxc-23" value="Sikertelen authentikáció" style="text;html=1;strokeColor=none;fillColor=none;align=center;verticalAlign=middle;whiteSpace=wrap;rounded=0;dashed=1;" parent="wc8MHf9N2YYuKddE2Fxc-1" vertex="1">
          <mxGeometry x="-34" y="145" width="149" height="30" as="geometry" />
        </mxCell>
        <mxCell id="wc8MHf9N2YYuKddE2Fxc-36" value="Sikeres authentikáció" style="text;html=1;strokeColor=none;fillColor=none;align=center;verticalAlign=middle;whiteSpace=wrap;rounded=0;dashed=1;" parent="wc8MHf9N2YYuKddE2Fxc-1" vertex="1">
          <mxGeometry x="-42" y="206" width="164" height="30" as="geometry" />
        </mxCell>
        <mxCell id="wc8MHf9N2YYuKddE2Fxc-19" value="" style="line;strokeWidth=1;fillColor=none;align=left;verticalAlign=middle;spacingTop=-1;spacingLeft=3;spacingRight=3;rotatable=0;labelPosition=right;points=[];portConstraint=eastwest;dashed=1;" parent="1" vertex="1">
          <mxGeometry x="110" y="-590" width="330" height="8" as="geometry" />
        </mxCell>
        <mxCell id="wc8MHf9N2YYuKddE2Fxc-6" value="Authentikációs token" style="html=1;verticalAlign=bottom;endArrow=open;dashed=1;endSize=8;rounded=0;" parent="1" edge="1">
          <mxGeometry y="6" relative="1" as="geometry">
            <mxPoint x="87" y="-550" as="targetPoint" />
            <mxPoint x="316" y="-550" as="sourcePoint" />
            <Array as="points">
              <mxPoint x="236" y="-550" />
              <mxPoint x="211" y="-550" />
            </Array>
            <mxPoint as="offset" />
          </mxGeometry>
        </mxCell>
      </root>
    </mxGraphModel>
  </diagram>
</mxfile>
